<?xml version="1.0" encoding="UTF-8" standalone="no"?>
<!-- Created with Inkscape (http://www.inkscape.org/) -->

<svg
   width="49.699329mm"
   height="45.597584mm"
   viewBox="0 0 49.69933 45.597584"
   version="1.1"
   id="svg508"
   sodipodi:docname="book-logo.svg"
   xmlns:inkscape="http://www.inkscape.org/namespaces/inkscape"
   xmlns:sodipodi="http://sodipodi.sourceforge.net/DTD/sodipodi-0.dtd"
   xmlns="http://www.w3.org/2000/svg"
   xmlns:svg="http://www.w3.org/2000/svg">
  <sodipodi:namedview
     id="namedview510"
     pagecolor="#ffffff"
     bordercolor="#000000"
     borderopacity="0.25"
     inkscape:showpageshadow="2"
     inkscape:pageopacity="0.0"
     inkscape:pagecheckerboard="0"
     inkscape:deskcolor="#d1d1d1"
     inkscape:document-units="mm"
     showgrid="false" />
  <defs
     id="defs505" />
  <g
     inkscape:label="Camada 1"
     inkscape:groupmode="layer"
     id="layer1"
     transform="translate(-82.987487,-111.90809)">
    <path
       class="cls-1"
       d="m 132.68682,117.09128 v 35.25308 c -0.2249,0.9869 -0.89429,1.44198 -1.85208,1.5584 a 6.8236041,6.8236041 0 0 1 -0.87048,0.0397 c -4.69106,0 -9.38213,0.0159 -14.07584,0 a 3.96875,3.96875 0 0 0 -2.3151,0.70909 c -1.0795,0.71173 -2.08227,1.53458 -3.22262,2.16164 a 4.9080208,4.9080208 0 0 1 -5.02709,0 25.021646,25.021646 0 0 1 -2.50296,-1.66158 q -0.47625,-0.33602 -0.96573,-0.65352 a 3.3946041,3.3946041 0 0 0 -1.923516,-0.55034 c -4.738688,0.0159 -9.480021,0 -14.218708,0 a 7.4083332,7.4083332 0 0 1 -0.873125,-0.0397 c -0.96573,-0.11113 -1.61925,-0.58738 -1.852084,-1.5584 v -35.35627 c 0.293688,-0.67204 0.685271,-1.25942 1.457854,-1.41287 a 5.3895624,5.3895624 0 0 1 1.11125,-0.0529 c 0.399521,0 0.918105,-0.17727 1.169459,0.0714 0.251354,0.2487 0.07144,0.76729 0.07144,1.16681 v 26.65412 c 0,0.56621 0.02117,1.13242 0.05556,1.69863 0.121708,1.82298 1.113896,2.78871 2.950104,2.86014 2.910417,0.11113 5.820833,0.0185 8.73125,0.0529 a 26.908125,26.908125 0 0 1 2.809876,0.11377 c 1.36525,0.15875 2.45798,0.73819 3.22527,1.89442 a 3.7835416,3.7835416 0 0 0 2.43681,1.70921 3.6803541,3.6803541 0 0 0 3.89467,-1.46579 c 0.59002,-0.76465 1.18269,-1.49755 2.13254,-1.83621 a 6.7786249,6.7786249 0 0 1 2.03994,-0.37307 c 3.175,-0.0979 6.37646,-0.0212 9.56733,-0.0503 a 9.1016666,9.1016666 0 0 0 1.73831,-0.11641 c 1.56898,-0.30957 2.30717,-1.12977 2.43417,-2.73844 0.0423,-0.52917 0.0608,-1.05833 0.0608,-1.5875 v -27.47963 c 0,-0.46566 0.0979,-0.64029 0.57415,-0.57679 a 6.6833749,6.6833749 0 0 0 0.92075,0 c 1.34408,0.003 1.82827,0.32279 2.31775,1.56634 z"
       id="path120"
       style="fill:#376f38;fill-opacity:1;stroke-width:0.264583" />
    <path
       class="cls-1"
       d="m 125.09063,145.92821 c 0,0.34132 -0.11906,0.39423 -0.41275,0.381 -2.667,-0.10318 -5.33664,-0.22754 -8.00364,-0.26458 -1.78594,-0.0344 -3.55071,0.17727 -5.20171,0.94192 a 9.3662499,9.3662499 0 0 0 -1.67217,1.03452 v -32.1019 a 1.0239375,1.0239375 0 0 1 0.41804,-0.89694 c 1.85209,-1.54516 4.0349,-2.32833 6.38969,-2.69875 2.67758,-0.42862 5.38163,-0.39687 8.08302,-0.41539 0.30956,0 0.40746,0.0688 0.40746,0.39687 q -0.0212,16.80898 -0.008,33.62325 z"
       id="path122"
       style="fill:#376f38;fill-opacity:1;stroke-width:0.264583" />
    <path
       class="cls-1"
       d="m 105.88982,115.94828 v 32.03839 a 1.5107708,1.5107708 0 0 1 -0.0212,0.26459 c -2.11666,-1.66953 -4.55877,-2.00819 -7.067017,-1.96321 -2.57175,0.0476 -5.140854,0.16933 -7.709958,0.2831 -0.420688,0.0185 -0.492125,-0.11112 -0.492125,-0.50271 q 0.01588,-16.69521 0,-33.39571 c 0,-0.43127 0.105833,-0.52916 0.529166,-0.52916 2.645834,0.0265 5.307542,0 7.9375,0.41539 2.434164,0.37571 4.664604,1.18798 6.559024,2.81252 a 0.67997916,0.67997916 0 0 1 0.26458,0.5768 z"
       id="path124"
       style="fill:#376f38;fill-opacity:1;stroke-width:0.264583" />
  </g>
</svg>
