<?xml version="1.0" encoding="UTF-8" standalone="no"?>
<!-- Created with Inkscape (http://www.inkscape.org/) -->

<svg
   version="1.1"
   id="svg2"
   width="396.70435"
   height="80.016739"
   viewBox="0 0 396.70435 80.016739"
   sodipodi:docname="20230305_181856_0000.png"
   inkscape:export-filename="logo.png"
   inkscape:export-xdpi="96"
   inkscape:export-ydpi="96"
   xmlns:inkscape="http://www.inkscape.org/namespaces/inkscape"
   xmlns:sodipodi="http://sodipodi.sourceforge.net/DTD/sodipodi-0.dtd"
   xmlns="http://www.w3.org/2000/svg"
   xmlns:svg="http://www.w3.org/2000/svg">
  <defs
     id="defs6" />
  <sodipodi:namedview
     id="namedview4"
     pagecolor="#ffffff"
     bordercolor="#000000"
     borderopacity="0.25"
     inkscape:showpageshadow="2"
     inkscape:pageopacity="0.0"
     inkscape:pagecheckerboard="0"
     inkscape:deskcolor="#d1d1d1"
     showgrid="false" />
  <g
     inkscape:groupmode="layer"
     inkscape:label="Image"
     id="g8"
     transform="translate(-52.132217,-254.61861)">
    <g
       id="g1573"
       transform="translate(1.8969174,9.6544892)">
      <path
         style="fill:#5c5ddb"
         d="m 393.42318,323.17965 c -5.96295,-2.0614 -14.15226,-7.82348 -17.65922,-12.4252 C 374.39984,308.9645 371.98241,305.025 370.39188,302 367.68919,296.85982 367.5,295.74764 367.5,285 c 0,-10.63488 0.21578,-11.93982 2.8683,-17.34656 3.65682,-7.45382 11.53856,-15.32193 19.16713,-19.13398 5.52279,-2.75978 6.77931,-2.98198 16.96457,-3 10.23448,-0.0181 11.45255,0.19501 17.50286,3.06235 8.33032,3.94787 15.46746,11.08501 19.41533,19.41533 2.83386,5.97967 3.08181,7.34764 3.08181,17.00286 0,9.2967 -0.30685,11.15467 -2.67759,16.21268 -5.0524,10.77938 -13.06397,18.2579 -23.35066,21.79704 -7.43834,2.55916 -19.91063,2.63752 -27.04857,0.16993 z m 29.2002,-4.09469 c 8.43155,-3.93996 13.71736,-9.04372 17.78309,-17.17063 4.13641,-8.26819 5.23484,-15.49783 3.57518,-23.53104 -6.24574,-30.23105 -41.97246,-41.43413 -63.53113,-19.9219 -15.05473,15.02231 -15.05473,38.06091 0,53.07419 11.45179,11.42027 27.67448,14.3243 42.17286,7.54938 z m -27.29453,0.0312 c -7.84772,-2.90099 -13.71964,-7.45167 -18.12213,-14.04445 -13.89203,-20.80347 -3.36888,-48.48187 20.77792,-54.65087 16.72444,-4.27275 33.4825,3.62149 41.26543,19.43895 2.96734,6.03062 3.24325,7.38902 3.1731,15.62257 -0.0941,11.0396 -2.13485,16.21781 -9.43273,23.93424 -9.66764,10.22211 -25.33351,14.25677 -37.66159,9.69956 z m 36.68241,-13.62197 c 4.82297,-2.49406 7.0529,-15.49233 2.79607,-16.29827 -1.36829,-0.25906 -1.75156,0.60172 -2,4.49181 -0.36777,5.7586 -2.08214,5.98893 -2.86978,0.38557 -0.61074,-4.34492 -3.30607,-8.07108 -5.84254,-8.07703 -0.91736,-0.002 -0.24135,-0.82912 1.59117,-1.94649 1.7524,-1.06851 3.6649,-2.83724 4.25,-3.93052 1.63065,-3.0469 1.29473,-11.34457 -0.56687,-14.00238 C 426.28102,261.70772 422.49997,261 402.03212,261 H 383 v 5.93045 c 0,5.38875 0.20552,5.95964 2.25,6.25 2.16203,0.30706 2.25,0.71053 2.25,10.31955 0,9.60902 -0.088,10.01249 -2.25,10.31955 -2.04448,0.29036 -2.25,0.86125 -2.25,6.25 V 306 h 13.5 13.5 v -5.88337 c 0,-5.04236 -0.28589,-5.95813 -2,-6.40638 C 405.20913,292.98042 405.17844,288 407.96482,288 c 2.65084,0 4.03518,2.91991 4.03518,8.51118 0,3.79803 0.53179,5.17446 2.92308,7.56574 2.53808,2.53809 3.66414,2.92308 8.54966,2.92308 3.09462,0 6.93695,-0.67762 8.53852,-1.50582 z M 406,277.43664 c 0,-4.54601 0.0124,-4.56217 3.25,-4.25 2.72721,0.26295 3.30184,0.76545 3.57226,3.12383 0.39955,3.48455 -1.323,5.68953 -4.4447,5.68953 C 406.22149,282 406,281.57489 406,277.43664 Z M 75.782375,321.11767 C 65.558828,317.00061 58.133319,309.80586 53.198338,299.23546 50.888786,294.28856 50.519215,292.19386 50.510317,284 c -0.0093,-8.60295 0.288499,-10.13073 3.154204,-16.17961 4.232947,-8.93482 10.102904,-15.08827 18.191874,-19.07046 C 78.096088,245.67814 79.063203,245.5 89.5,245.5 c 10.436797,0 11.40391,0.17814 17.64361,3.24993 8.08897,3.98219 13.95892,10.13564 18.19187,19.07046 2.86188,6.0408 3.16452,7.58815 3.16452,16.17961 0,8.60923 -0.2994,10.13205 -3.19313,16.24075 -3.95347,8.34583 -10.90607,15.46279 -18.82868,19.27377 -5.12916,2.46727 -7.398398,2.92022 -15.97819,3.18932 -8.02551,0.25171 -10.931491,-0.0615 -14.717625,-1.58617 z m 28.455485,-3.36903 c 18.93424,-8.66838 27.18517,-30.4399 18.7569,-49.49338 -2.89461,-6.54375 -11.08971,-14.56336 -18.27239,-17.88109 C 99.327933,247.88243 97.302483,247.5 89.5,247.5 c -7.6722,0 -9.843605,0.3954 -14.718065,2.68006 -7.566957,3.54663 -15.111615,10.75545 -18.519769,17.6954 C 53.778434,272.93303 53.5,274.55843 53.5,284 c 0,9.5546 0.250761,10.97594 2.78504,15.7859 5.187807,9.84627 12.958195,16.54288 23.000999,19.82252 6.568997,2.14522 18.077392,1.28744 24.951821,-1.85978 z m -27.317382,-1.03215 c -7.20993,-3.04271 -12.327101,-6.9937 -16.031706,-12.37815 -12.637074,-18.36736 -6.160255,-42.76713 13.934546,-52.49486 6.91914,-3.34949 19.743133,-3.76434 27.378312,-0.88565 7.84774,2.95882 14.97566,9.62557 18.97314,17.74561 2.87719,5.84441 3.23894,7.52776 3.26317,15.18482 0.0229,7.24358 -0.38709,9.48553 -2.58073,14.11174 -3.68775,7.77714 -8.71006,13.10885 -16.0312,17.01884 -5.49348,2.93389 -7.444647,3.42285 -14.82601,3.7154 -7.16702,0.28406 -9.374987,-0.0324 -14.079522,-2.01775 z m 19.351079,-11.64878 c 12.889383,-0.99375 17.140913,-3.15686 20.714693,-10.53931 3.18985,-6.58934 2.63639,-17.47803 -1.18163,-23.24745 C 110.9884,264.00315 107.33963,263 85.684276,263 H 67 v 5.38337 c 0,4.4182 0.335369,5.47107 1.870568,5.87253 1.533989,0.40115 1.99844,1.85376 2.581232,8.07301 0.810816,8.65262 0.265325,11.30871 -2.502952,12.18733 C 67.33211,295.02937 67,296.06056 67,300.56739 V 306 l 9.25,-0.0509 c 5.0875,-0.028 14.097201,-0.42463 20.021557,-0.88138 z M 89,284 v -10 h 3.345012 c 5.05572,0 7.121655,2.90092 7.121655,10 0,7.09908 -2.065935,10 -7.121655,10 H 89 Z m 68.77595,37.57852 c -10.1878,-2.92877 -19.03309,-10.42726 -24.46309,-20.73831 -2.61033,-4.95677 -2.81228,-6.16594 -2.81256,-16.84021 -2.8e-4,-10.70111 0.20391,-11.91593 2.93932,-17.48724 3.74431,-7.62618 10.44696,-14.32883 18.07314,-18.07314 C 157.08391,245.70429 158.29921,245.5 169,245.5 c 11.19715,0 11.66624,0.0901 17.81259,3.42269 14.27973,7.74246 22.34433,22.78522 20.84177,38.87578 -1.22076,13.0728 -10.40079,25.84336 -22.65436,31.515 -7.68623,3.55763 -19.35163,4.52819 -27.22405,2.26505 z m 22.37353,-3.21586 c 9.37555,-2.93724 16.6773,-9.37318 21.96745,-19.36266 2.07374,-3.91589 2.38307,-5.86293 2.38307,-15 0,-8.69948 -0.37624,-11.31465 -2.19411,-15.25076 -3.27326,-7.0874 -11.27467,-14.99906 -18.58352,-18.37507 -5.42068,-2.50386 -7.38193,-2.8702 -15.22237,-2.84337 -8.04954,0.0275 -9.69771,0.36894 -15.60667,3.23268 -7.83432,3.79685 -13.9806,10.05697 -17.73292,18.06137 -2.31462,4.93752 -2.65328,6.90991 -2.60556,15.17515 0.0478,8.27126 0.41077,10.22722 2.80669,15.12248 8.34974,17.05992 26.65154,24.92208 44.78794,19.24018 z m -19.40356,-0.44833 C 150.78564,315.56687 140.98708,307.53655 136.66089,298.17567 134.90214,294.37014 134.5,291.639 134.5,283.5 c 0,-9.48107 0.17686,-10.32616 3.4081,-16.28522 6.29601,-11.61112 15.52843,-17.31964 29.0919,-17.98786 11.58882,-0.57095 18.31639,1.92947 26.08,9.69308 12.20805,12.20805 13.97745,30.32153 4.37856,44.82386 -7.44829,11.25313 -23.23559,17.34677 -36.71264,14.17047 z M 164,299 c 0,-5.33333 -0.22222,-6 -2,-6 -1.33333,0 -2,-0.66667 -2,-2 0,-1.73333 0.66667,-2 5,-2 4.33333,0 5,0.26667 5,2 0,1.34956 -0.66667,2 -2.0499,2 -1.86364,0 -2.02266,0.52247 -1.75,5.75 l 0.2999,5.75 h 13.5 13.5 l 0.29764,-5.67421 c 0.27411,-5.22547 0.11988,-5.69997 -1.95013,-6 -1.78037,-0.25804 -3.03792,-2.18557 -6.04764,-9.26958 C 181.69103,273.8852 181.16256,271 183.5,271 c 1.15152,0 1.5,-1.27778 1.5,-5.5 V 260 H 169.5 154 v 5.13976 c 0,3.69712 0.48046,5.49108 1.71176,6.39142 1.58525,1.15917 1.42866,1.96695 -2.11894,10.93022 -2.91667,7.36919 -4.39882,9.89454 -6.21176,10.58382 C 145.26954,293.84802 145,294.5759 145,299.47525 V 305 h 9.5 9.5 z m -0.94558,-17.75 c 0.55271,-1.5125 1.26759,-3.425 1.58864,-4.25 0.40026,-1.02858 0.99559,-0.40001 1.89425,2 1.83716,4.90645 1.80887,5 -1.51256,5 -2.82268,0 -2.92372,-0.14102 -1.97033,-2.75 z m 72.85161,40.34302 c -10.47789,-4.0241 -18.54971,-11.01017 -23.19699,-20.07677 -2.67067,-5.21032 -3.1413,-7.32417 -3.51326,-15.77982 -0.36909,-8.39055 -0.10806,-10.62303 1.85616,-15.87531 3.12714,-8.3619 11.02487,-16.78901 19.76835,-21.09342 6.22107,-3.06261 7.29797,-3.2677 17.15868,-3.2677 9.46301,0 11.0863,0.2776 16.14218,2.76051 8.77454,4.30912 14.3138,9.81733 18.60651,18.50225 3.56721,7.21712 3.77234,8.15157 3.77234,17.18469 0,8.65666 -0.29771,10.18098 -3.1744,16.25326 -4.05695,8.56368 -10.6042,15.09831 -19.12489,19.08804 -5.70103,2.66946 -8.04342,3.17835 -15.70071,3.41105 -5.86785,0.17832 -10.25076,-0.20686 -12.59397,-1.10678 z m 25.6526,-3.70084 c 7.07045,-2.6454 15.83919,-10.87077 19.3316,-18.13371 6.79162,-14.12409 2.93541,-32.43629 -9.11128,-43.26731 -6.762,-6.07962 -14.2315,-8.81589 -24.27895,-8.89402 -6.97555,-0.0542 -8.86115,0.3435 -14.72477,3.10598 -8.06567,3.79992 -14.5938,10.19081 -18.46754,18.0793 -2.49082,5.0723 -2.80364,6.78974 -2.77178,15.21758 0.0314,8.2963 0.38701,10.22434 2.8069,15.21677 4.86968,10.04653 14.66837,18.05377 25.40311,20.75876 5.45698,1.37508 15.00717,0.46293 21.81271,-2.08335 z m -24.46294,-0.33996 c -15.3245,-4.98374 -24.73482,-18.89707 -23.92246,-35.36981 0.66413,-13.46708 7.56398,-23.95947 19.66311,-29.9011 5.01256,-2.46157 6.75579,-2.77707 15.16366,-2.7444 8.29392,0.0322 10.14842,0.37431 14.60744,2.6946 6.88238,3.5813 10.59568,6.85156 14.25512,12.55431 14.88848,23.20169 -0.27758,52.72344 -27.67723,53.87558 -4.80724,0.20214 -9.33471,-0.21324 -12.08964,-1.10918 z m 28.0044,-12.56341 C 270.40573,303.51501 272.5,300.68804 272.5,295 c 0,-5.23547 -2.05062,-8.45896 -6.5,-10.21775 -2.46809,-0.9756 -2.47265,-0.99875 -0.357,-1.81343 3.3767,-1.30027 5.35844,-4.98845 5.34169,-9.94133 -0.0171,-5.06399 -0.42155,-5.91587 -3.9572,-8.33545 -2.12242,-1.45247 -5.34357,-1.69204 -22.75,-1.69204 -22.58543,0 -20.93381,-0.60215 -19.64961,7.16393 0.40122,2.42631 1.24196,3.83028 2.489,4.15638 C 228.79756,274.75982 229,275.85418 229,284.5 c 0,8.84624 -0.17363,9.73264 -2,10.21025 -1.68755,0.44131 -2,1.36402 -2,5.90638 V 306 l 18.25,-0.006 c 10.0375,-0.003 19.87004,-0.45559 21.85009,-1.00561 z M 247,291 v -4.12073 l 3.75,0.31036 c 3.55993,0.29464 3.75,0.48777 3.75,3.81037 0,3.3226 -0.19007,3.51573 -3.75,3.81037 l -3.75,0.31036 z m 0,-13.56336 c 0,-3.41781 0.13275,-3.55056 3.25,-3.25 2.85772,0.27554 3.28782,0.70564 3.56336,3.56336 0.30056,3.11725 0.16781,3.25 -3.25,3.25 C 247.14555,281 247,280.85445 247,277.43664 Z m 65.89246,43.20916 c -10.14093,-4.1716 -17.21042,-10.76814 -21.5902,-20.1458 -2.53621,-5.43035 -2.80226,-7.04435 -2.80226,-17 0,-10.17213 0.21976,-11.43393 2.91993,-16.76565 3.64145,-7.19037 11.78976,-15.00605 19.32743,-18.53846 C 315.85034,245.80445 317.68579,245.5 327,245.5 c 9.44005,0 11.06744,0.27867 16.12115,2.76051 8.63604,4.2411 14.32428,9.83844 18.42008,18.12573 10.9222,22.09957 0.48576,47.06986 -22.96937,54.95667 -7.34374,2.46934 -18.73356,2.16014 -25.6794,-0.69711 z m 27.66617,-2.75362 c 10.91138,-4.08247 20.47427,-16.06703 22.38477,-28.0534 1.85052,-11.61006 -2.04202,-23.00446 -10.90656,-31.92615 -7.35785,-7.40528 -14.44284,-10.25279 -25.57614,-10.27924 -6.93791,-0.0165 -8.95523,0.40952 -14.72477,3.10941 -31.85186,14.90528 -27.2316,60.60947 6.99854,69.23035 5.46829,1.37719 15.01416,0.46698 21.82416,-2.08097 z m -25.13942,-0.65393 c -15.13561,-5.41088 -24.12764,-19.18495 -23.24091,-35.60062 0.69846,-12.93032 7.7977,-23.53195 19.65804,-29.35632 4.99761,-2.45423 6.78087,-2.77954 15.16366,-2.76624 8.89479,0.0141 9.90268,0.23244 15.82093,3.42713 12.31243,6.6463 18.4783,17.12386 18.57123,31.5578 0.0424,6.58686 -0.409,8.99273 -2.55549,13.62001 -5.81709,12.54013 -16.82855,19.93218 -30.65134,20.5764 -5.6284,0.26232 -9.04517,-0.12795 -12.76612,-1.45816 z M 322,299 c 0,-5.40406 -0.20593,-6 -2.07332,-6 -1.43453,0 -1.97094,-0.53918 -1.74101,-1.75 0.2504,-1.31861 1.50102,-1.82513 5.07332,-2.05479 4.12876,-0.26543 4.74101,-0.0545 4.74101,1.63337 0,1.11445 -0.87337,2.16655 -2.05501,2.47555 -1.80125,0.47104 -2.01734,1.19547 -1.75,5.86664 L 324.5,304.5 l 13.75,0.27822 13.75,0.27822 v -6.02822 C 352,293.62551 351.78813,293 349.95818,293 c -1.53892,0 -2.73236,-1.53938 -4.84543,-6.25 -5.34317,-11.91141 -5.8123,-13.76531 -3.84696,-15.2024 C 342.52198,270.62905 343,268.86279 343,265.13976 V 260 H 327.5 312 v 6 c 0,4.66667 0.33333,6 1.5,6 2.14315,0 1.9077,1.49609 -1.65247,10.5 -3.35869,8.49436 -5.31955,11.5 -7.50252,11.5 C 303.38136,294 303,295.55945 303,299.5 v 5.5 h 9.5 9.5 z m -0.94558,-17.75 c 0.55271,-1.5125 1.26759,-3.425 1.58864,-4.25 0.40026,-1.02858 0.99559,-0.40001 1.89425,2 1.83716,4.90645 1.80887,5 -1.51256,5 -2.82268,0 -2.92372,-0.14102 -1.97033,-2.75 z"
         id="path1577" />
      <path
         style="fill:#1c1ece"
         d="m 396.74592,323.91433 c -10.49288,-2.47299 -20.7284,-11.07073 -26.05112,-21.88271 -2.97942,-6.05206 -3.1948,-7.19886 -3.1948,-17.01059 0,-9.32188 0.30546,-11.17275 2.68006,-16.2391 3.12628,-6.67012 10.27829,-14.69043 16.17609,-18.13999 23.85173,-13.95062 53.94378,-0.65604 59.74525,26.39527 4.32406,20.1624 -8.52463,41.26345 -28.33741,46.53774 -5.82228,1.54993 -15.23669,1.70195 -21.01807,0.33938 z m 26.44959,-4.76901 c 7.82718,-3.73557 14.86003,-10.88673 18.61412,-18.92725 2.30699,-4.94114 2.66872,-7.00887 2.66229,-15.21807 -0.007,-8.64692 -0.29538,-10.09169 -3.21398,-16.08912 -3.86717,-7.94665 -11.02502,-14.98152 -19.03987,-18.71275 -4.91506,-2.28816 -7.05219,-2.66453 -15.21807,-2.68006 -8.23696,-0.0157 -10.26022,0.33825 -15.21807,2.66199 -7.98459,3.74237 -15.13706,10.76459 -19.04065,18.69391 -2.96707,6.02698 -3.24128,7.38944 -3.24128,16.105 0,8.22006 0.36352,10.29649 2.66041,15.19618 4.69157,10.008 13.71188,18.02386 24.12563,21.43914 7.11002,2.33179 19.16861,1.2254 26.90947,-2.46897 z m -25.26616,0.54715 c -10.40733,-2.94236 -19.06492,-10.43682 -23.76527,-20.57246 -2.15255,-4.64166 -2.61129,-7.10282 -2.63517,-14.13781 -0.0259,-7.63614 0.31066,-9.2079 3.25166,-15.18482 12.19389,-24.78129 46.6202,-27.31724 61.67168,-4.54293 3.5266,5.33608 6.55736,14.70565 6.53588,20.20565 -0.0183,4.69017 -2.54133,13.10177 -5.3855,17.955 -7.53215,12.85262 -25.58638,20.26002 -39.67328,16.27737 z m 36.26313,-15.44051 c 1.70679,-1.70679 2.30462,-3.69501 2.62529,-8.73101 0.38546,-6.0536 0.26746,-6.52095 -1.64648,-6.52095 -1.75014,0 -2.10777,0.71784 -2.3665,4.75 -0.27789,4.33073 -2.04978,6.59447 -2.4882,3.17889 -0.9617,-7.49231 -1.57099,-9.08768 -3.87089,-10.13559 l -2.44641,-1.11465 2.94953,-1.79372 c 5.31673,-3.23329 6.37948,-14.00867 1.86009,-18.85966 C 425.46349,261.43437 422.61743,261 402.4349,261 H 383 v 6 c 0,5.2203 0.246,6 1.89301,6 2.55504,0 3.10699,1.86531 3.10699,10.5 0,8.63469 -0.55195,10.5 -3.10699,10.5 C 383.246,294 383,294.7797 383,300 v 6 h 14 14 v -5.59362 c 0,-4.75262 -0.3007,-5.67225 -2,-6.11663 -1.1,-0.28766 -2.00614,-0.80803 -2.01365,-1.15638 -0.008,-0.34835 -0.285,-1.64587 -0.61664,-2.88337 -0.48789,-1.82057 -0.19428,-2.25 1.53841,-2.25 2.63599,0 4.09188,3.41943 4.09188,9.61055 0,3.47407 0.57515,5.05551 2.56078,7.04114 2.37437,2.37437 3.10165,2.53346 9.99121,2.18555 6.02319,-0.30416 7.84899,-0.79378 9.64049,-2.58528 z M 406,277.5 c 0,-4.29635 0.13092,-4.5 2.89301,-4.5 C 411.68098,273 413,274.44857 413,277.51036 413,279.48048 410.15399,282 407.92857,282 406.30952,282 406,281.27778 406,277.5 Z M 78.5,321.66247 c -6.955303,-2.3178 -11.855762,-5.35221 -16.685312,-10.3317 -6.096134,-6.28539 -9.534965,-13.3466 -10.941673,-22.46735 -0.96018,-6.22557 -0.877864,-8.36404 0.532696,-13.83877 3.104773,-12.05038 10.362162,-21.11477 21.192772,-26.46949 7.68211,-3.79808 20.505261,-4.73269 28.601377,-2.08458 11.38389,3.72348 20.57216,12.44305 25.09008,23.81022 2.96555,7.46137 2.87587,20.14097 -0.19806,28.00378 -3.11204,7.9603 -11.43089,16.77239 -19.65626,20.82173 -5.35497,2.63624 -7.793857,3.20184 -15.158676,3.51542 C 85.666029,322.86063 81.057116,322.5146 78.5,321.66247 Z m 26.71677,-4.04079 c 7.82296,-3.74329 14.25648,-10.28564 18.09091,-18.39691 2.81234,-5.94917 3.17469,-7.70639 3.14175,-15.23577 -0.0324,-7.39937 -0.44612,-9.38477 -3.16773,-15.20072 -3.84191,-8.20997 -10.49707,-15.06123 -18.0852,-18.6181 -4.98327,-2.33586 -6.948542,-2.67015 -15.6965,-2.66998 -8.941562,1.9e-4 -10.607331,0.29834 -15.737994,2.81694 C 51.481172,261.25464 45.44873,289.9359 61.641154,307.94577 70.718868,318.04238 78.043577,321.22461 91,320.7008 c 6.729116,-0.27205 9.69103,-0.91355 14.21677,-3.07912 z M 78.26786,317.10491 C 68.474152,313.46739 60.557337,305.75296 57.039083,296.41881 55.198592,291.53587 54.877671,289.01239 55.205396,282 c 0.341777,-7.31309 0.869594,-9.38443 3.779932,-14.83383 3.727296,-6.97909 9.059364,-11.92483 16.594331,-15.392 7.407815,-3.40866 20.830258,-3.2545 28.465971,0.32694 7.54608,3.5394 12.05618,7.73651 15.73959,14.6473 9.82108,18.42624 2.90779,40.06131 -15.62067,48.8847 -7.636531,3.63657 -18.418404,4.24934 -25.89669,1.4718 z m 24.64636,-12.17993 c 10.95641,-2.34973 16.04268,-8.90639 16.06933,-20.71482 C 119.00715,273.75 116.15131,268.61368 108,264.45592 103.96407,262.39731 83.78859,261.25419 72.613346,262.45096 L 66,263.15919 v 5.35085 c 0,4.78769 0.236809,5.38449 2.25,5.67041 2.134459,0.30314 2.264697,0.82023 2.536212,10.06955 0.271089,9.23484 0.178624,9.75 -1.75,9.75 C 67.214175,294 67,294.6311 67,300 v 6 h 15.450779 c 8.497928,0 17.706481,-0.48376 20.463441,-1.07502 z M 89,284 v -10 h 3 c 4.836777,0 7,3.02156 7,9.77749 C 99,291.15215 97.173395,294 92.443296,294 H 89 Z m 71,37.69379 C 148.24789,318.99945 137.89111,310.52523 132.76382,299.40837 130.84674,295.25179 130.5,292.81519 130.5,283.5 c 0,-10.16189 0.21727,-11.41275 2.85164,-16.41733 4.21515,-8.00764 11.63218,-15.33944 18.92599,-18.7085 5.60283,-2.588 7.26781,-2.87417 16.72237,-2.87417 9.51813,0 11.04244,0.26636 16.30077,2.84839 15.2761,7.50112 24.60799,24.91682 21.94911,40.96267 -3.74514,22.60121 -25.34507,37.40473 -47.24988,32.38273 z m 22.566,-3.80147 c 8.15719,-3.04802 17.20615,-12.07354 20.44527,-20.39232 3.6172,-9.28979 3.33999,-20.01526 -0.74281,-28.74002 -3.82813,-8.18051 -10.49455,-15.03795 -18.07196,-18.5898 C 179.276,247.86374 177.20588,247.5 169,247.5 c -8.37312,0 -10.24517,0.34411 -15.78203,2.90094 -8.15786,3.76716 -16.19981,12.26778 -19.21836,20.31448 -3.07932,8.20869 -2.56309,20.43488 1.20422,28.52037 8.319,17.8544 28.37053,25.75294 47.36217,18.65653 z m -27.20945,-1.97457 c -7.41493,-2.85158 -13.6876,-8.81349 -17.5698,-16.69936 -2.98135,-6.05598 -3.28628,-7.51456 -3.2817,-15.69736 0.004,-7.14141 0.45808,-10.00391 2.17928,-13.73826 3.04632,-6.60936 10.55445,-14.26138 17.19113,-17.5206 4.96873,-2.44011 6.73223,-2.75787 15.12454,-2.72526 8.34081,0.0324 10.1361,0.36773 14.71308,2.74814 7.42394,3.86106 11.51557,7.79054 15.08472,14.48697 10.05521,18.8655 1.88995,41.96304 -17.38368,49.17423 -7.30354,2.7326 -18.91094,2.71991 -26.05757,-0.0285 z M 164,299.11663 c 0,-5.1405 -0.26583,-5.95288 -2.10536,-6.43393 -3.6781,-0.96185 -1.509,-3.16504 3.43353,-3.48749 4.14558,-0.27046 4.67183,-0.0733 4.67183,1.75 0,1.38812 -0.64889,2.05479 -2,2.05479 -1.77778,0 -2,0.66667 -2,6 v 6 h 14 14 v -5.89159 c 0,-5.32919 -0.22156,-5.9472 -2.32097,-6.47412 -1.83941,-0.46166 -3.11576,-2.59063 -6.15162,-10.26096 -3.48875,-8.81458 -3.68323,-9.78622 -2.17903,-10.88612 C 184.54588,270.61158 185,268.72883 185,264.63976 V 259 h -5.34444 c -2.93944,0 -10.13944,0.29338 -16,0.65197 L 153,260.30393 v 5.44166 c 0,4.60065 0.3091,5.52248 2,5.96466 1.1,0.28766 2,0.84038 2,1.22827 0,0.38789 -1.71718,4.94791 -3.81594,10.13337 -3.01994,7.46139 -4.27155,9.49477 -6,9.74766 -1.96397,0.28735 -2.18406,0.91717 -2.18406,6.25 V 305 h 9.5 9.5 z M 163.26138,280.5 c 0.5908,-1.925 1.37318,-3.5 1.73862,-3.5 0.36544,0 1.14782,1.575 1.73862,3.5 1.05118,3.42505 1.01395,3.5 -1.73862,3.5 -2.75257,0 -2.7898,-0.075 -1.73862,-3.5 z m 75.1213,41.60898 C 227.91548,319.4157 216.84948,310.18373 212.20303,300.26825 209.80352,295.1477 209.5,293.32099 209.5,284 c 0,-9.25516 0.31242,-11.16629 2.63517,-16.12001 9.25303,-19.73393 32.72589,-28.31853 52.15852,-19.07566 18.87319,8.97678 27.04983,29.79457 19.57448,49.83675 -3.05753,8.19755 -13.02214,18.14587 -21.36817,21.33324 -6.43818,2.45877 -18.65517,3.54011 -24.11732,2.13466 z m 24.69389,-4.79203 c 15.54323,-7.3413 24.1979,-23.8611 20.92111,-39.93366 C 281.54645,265.36006 274.12398,255.8905 263,250.59455 257.22646,247.84586 255.49413,247.5 247.5,247.5 c -8.11481,0 -9.6498,0.31795 -15.60667,3.23268 -7.51768,3.67843 -13.437,9.54961 -17.57001,17.42711 -2.52306,4.80894 -2.80287,6.33507 -2.81256,15.34021 -0.009,8.72827 0.32436,10.71471 2.62441,15.62001 8.93185,19.04894 30.30912,26.99724 48.9414,18.19694 z m -23.3421,0.595 c -9.98664,-2.35283 -19.00209,-9.75254 -23.34904,-19.16447 -2.50623,-5.42644 -2.88471,-7.43025 -2.87997,-15.24748 0.005,-7.95805 0.34429,-9.67037 2.93209,-14.79048 3.56918,-7.06183 9.82505,-13.00985 17.3873,-16.5317 4.76925,-2.22111 7.04307,-2.6387 14.24465,-2.61607 7.27616,0.0229 9.41381,0.44001 14.16366,2.7639 24.21734,11.84843 27.16738,45.22491 5.31712,60.15723 -8.05714,5.50619 -18.68439,7.58041 -27.81581,5.42907 z m 27.96425,-13.66969 c 7.13357,-4.08064 7.08527,-15.23412 -0.082,-18.94048 l -2.99394,-1.54823 2.65236,-1.38971 c 3.83477,-2.00924 5.49228,-8.05862 3.58403,-13.08063 -2.43852,-6.41755 -4.28499,-6.80868 -30.60914,-6.48377 L 224,263 v 5.39159 c 0,4.93738 0.21363,5.44521 2.53587,6.02806 2.5229,0.6332 2.53441,0.68621 2.25,10.35841 -0.27112,9.22033 -0.40196,9.73843 -2.53587,10.04149 -2.0079,0.28517 -2.25,0.88595 -2.25,5.58333 0,2.89508 0.18604,5.45129 0.41342,5.68045 1.04434,1.05257 41.21356,-0.65597 43.2853,-1.84107 z M 247,290.93963 v -4.06036 l 3.75,0.31036 c 3.30505,0.27354 3.78916,0.65345 4.08008,3.20186 0.37457,3.2813 -1.05158,4.57077 -5.08008,4.5932 -2.55099,0.0142 -2.75,-0.27852 -2.75,-4.04506 z M 247,277.5 c 0,-3.48929 0.12315,-3.61484 3.25,-3.31336 2.87481,0.27718 3.25,0.65969 3.25,3.31336 0,2.65367 -0.37519,3.03618 -3.25,3.31336 -3.12685,0.30148 -3.25,0.17593 -3.25,-3.31336 z m 70.38268,44.55107 c -10.24729,-2.44635 -21.53926,-11.84912 -26.15939,-21.7828 -2.36753,-5.09041 -2.68518,-7.00219 -2.70305,-16.26827 -0.0229,-11.88372 1.57514,-16.74931 8.12736,-24.74543 21.1249,-25.78016 62.38647,-14.61017 68.55485,18.5586 3.52408,18.9498 -9.28679,38.66348 -28.43846,43.76178 -5.59905,1.49051 -14.24279,1.70285 -19.38131,0.47612 z m 24.69389,-4.72021 c 8.17008,-3.84114 14.39947,-10.07347 18.32221,-18.33086 2.71532,-5.71575 3.08339,-7.52688 3.05065,-15.011 -0.0322,-7.35808 -0.45049,-9.39003 -3.08788,-15 C 356.49309,260.76044 350.28059,254.53681 342,250.59455 336.22646,247.84586 334.49413,247.5 326.5,247.5 c -8.11481,0 -9.6498,0.31795 -15.60667,3.23268 -7.51768,3.67843 -13.437,9.54961 -17.57001,17.42711 -2.52306,4.80894 -2.80287,6.33507 -2.81256,15.34021 -0.009,8.72827 0.32436,10.71471 2.62441,15.62001 8.92792,19.04058 30.2787,26.98509 48.9414,18.21085 z m -24.14722,0.30177 c -10.22853,-2.7579 -18.10429,-9.51544 -22.82824,-19.587 -2.20197,-4.69466 -2.59949,-6.92666 -2.59053,-14.54563 0.01,-8.14308 0.31125,-9.57699 3.16847,-15.05999 3.77855,-7.25101 9.56609,-12.73118 17.20094,-16.28744 4.70953,-2.19366 7.00833,-2.61339 14.18951,-2.59082 7.27465,0.0229 9.41419,0.44019 14.15967,2.76194 24.28187,11.88002 27.228,45.18818 5.32111,60.15919 -8.43855,5.76684 -19.17056,7.69785 -28.62093,5.14975 z M 323,300.58179 C 323,294.87598 322.23123,293 319.89301,293 318.85186,293 318,292.325 318,291.5 c 0,-1.13333 1.22222,-1.5 5,-1.5 3.77778,0 5,0.36667 5,1.5 0,0.83333 -0.88889,1.5 -2,1.5 -1.77778,0 -2,0.66667 -2,6 v 6 h 14 14 v -5.93045 c 0,-5.31622 -0.22425,-5.96354 -2.16521,-6.25 -1.68087,-0.24807 -3.01216,-2.33276 -5.95149,-9.31955 -4.24023,-10.07903 -4.53471,-11.5 -2.3833,-11.5 1.16667,0 1.5,-1.33333 1.5,-6 v -6 h -16 -16 v 5.59362 c 0,4.75262 0.3007,5.67225 2,6.11663 2.64433,0.69151 2.55521,1.27766 -1.79253,11.78975 -2.96617,7.1717 -4.17791,9.06492 -5.96491,9.31955 -2.0354,0.29003 -2.24256,0.8674 -2.24256,6.25 V 305 h 10 10 z M 321.46235,281.25 c 1.07196,-4.34042 2.09959,-4.58396 3.2687,-0.77465 1.03897,3.38526 0.9823,3.52465 -1.43306,3.52465 -2.24141,0 -2.44097,-0.29897 -1.83564,-2.75 z"
         id="path1575" />
    </g>
  </g>
</svg>
